<svg width="323" height="323" version="1.1" xmlns="http://www.w3.org/2000/svg" desc="Created with imagetracer.js version 1.2.6" ><path fill="rgb(0,0,0)" stroke="rgb(0,0,0)" stroke-width="1" opacity="0" d="M 0 0 L 323 0 L 323 323 L 0 323 L 0 0 Z M 153 70 L 130 76 L 109 89 Q 92 102 83 124 L 79 137 L 77 154 L 73 153 L 54 154 Q 42 157 35 163 Q 24 171 18 185 L 15 195 L 15 205 L 14 206 L 15 207 L 15 215 L 18 225 L 26 239 Q 34 249 49 252 Q 70 253 79 242 L 53 216 L 50 211 Q 48 198 54 194 Q 58 189 65 188 L 72 189 L 77 192 L 128 243 Q 134 250 146 252 L 158 252 L 172 246 L 176 241 L 165 230 L 122 187 Q 116 178 113 166 L 113 148 L 115 140 L 125 123 L 136 113 L 149 107 L 160 105 L 178 107 L 191 113 L 233 152 L 239 143 L 240 131 L 241 130 Q 239 111 229 100 Q 216 83 195 75 L 175 70 L 153 70 Z M 160 141 L 156 143 Q 149 147 147 156 Q 146 164 150 169 L 225 243 L 237 250 L 252 254 L 271 253 Q 283 250 291 243 Q 304 232 309 213 L 309 196 Q 307 194 308 190 Q 306 179 300 173 Q 290 160 274 155 L 260 156 L 245 164 L 245 167 L 271 193 L 274 200 Q 275 207 272 211 Q 268 217 261 219 L 256 219 L 250 217 L 238 207 L 187 156 L 187 154 L 173 142 Q 168 140 160 141 Z " /><path fill="rgb(8,65,242)" stroke="rgb(8,65,242)" stroke-width="1" opacity="0.24705882352941178" d="M 152.5 70 L 159 70.5 L 152.5 71 L 152.5 70 Z " /><path fill="rgb(8,65,242)" stroke="rgb(8,65,242)" stroke-width="1" opacity="0.24705882352941178" d="M 166.5 70 L 175 70.5 L 166.5 71 L 166.5 70 Z " /><path fill="rgb(8,65,242)" stroke="rgb(8,65,242)" stroke-width="1" opacity="0.24705882352941178" d="M 145.5 71 L 149 71.5 L 145.5 72 L 145.5 71 Z " /><path fill="rgb(8,65,242)" stroke="rgb(8,65,242)" stroke-width="1" opacity="0.24705882352941178" d="M 177.5 71 L 181 71.5 L 177.5 72 L 177.5 71 Z " /><path fill="rgb(8,65,242)" stroke="rgb(8,65,242)" stroke-width="1" opacity="0.24705882352941178" d="M 141.5 72 L 144 72.5 L 141.5 73 L 141.5 72 Z " /><path fill="rgb(8,65,242)" stroke="rgb(8,65,242)" stroke-width="1" opacity="0.24705882352941178" d="M 186.5 73 L 189 73.5 L 186.5 74 L 186.5 73 Z " /><path fill="rgb(8,65,242)" stroke="rgb(8,65,242)" stroke-width="1" opacity="0.24705882352941178" d="M 193.5 75 L 197 76.5 L 195.5 77 L 193.5 75 Z " /><path fill="rgb(8,65,242)" stroke="rgb(8,65,242)" stroke-width="1" opacity="0.24705882352941178" d="M 129.5 76 L 131 76.5 L 120.5 82 L 121.5 80 L 129.5 76 Z " /><path fill="rgb(8,65,242)" stroke="rgb(8,65,242)" stroke-width="1" opacity="0.24705882352941178" d="M 198.5 77 L 207 81.5 L 205.5 81 L 198.5 78 L 198.5 77 Z " /><path fill="rgb(8,65,242)" stroke="rgb(8,65,242)" stroke-width="1" opacity="0.24705882352941178" d="M 118.5 82 L 117.5 84 L 118.5 82 Z " /><path fill="rgb(8,65,242)" stroke="rgb(8,65,242)" stroke-width="1" opacity="0.24705882352941178" d="M 208.5 82 L 209.5 84 L 208.5 82 Z " /><path fill="rgb(8,65,242)" stroke="rgb(8,65,242)" stroke-width="1" opacity="0.24705882352941178" d="M 115.5 84 L 114.5 86 L 115.5 84 Z " /><path fill="rgb(8,65,242)" stroke="rgb(8,65,242)" stroke-width="1" opacity="0.24705882352941178" d="M 211.5 84 L 212.5 86 L 211.5 84 Z " /><path fill="rgb(8,65,242)" stroke="rgb(8,65,242)" stroke-width="1" opacity="0.24705882352941178" d="M 112.5 86 L 110.5 89 L 112.5 86 Z " /><path fill="rgb(8,65,242)" stroke="rgb(8,65,242)" stroke-width="1" opacity="0.24705882352941178" d="M 214.5 86 L 229 99.5 L 217.5 89 L 214.5 86 Z " /><path fill="rgb(8,65,242)" stroke="rgb(8,65,242)" stroke-width="1" opacity="0.24705882352941178" d="M 108.5 89 L 97 101.5 L 88.5 114 L 89 112.5 Q 96.4 98.4 108.5 89 Z " /><path fill="rgb(8,65,242)" stroke="rgb(8,65,242)" stroke-width="1" opacity="0.24705882352941178" d="M 229.5 101 L 233 105.5 L 231 104.5 L 229.5 101 Z " /><path fill="rgb(8,65,242)" stroke="rgb(8,65,242)" stroke-width="1" opacity="0.24705882352941178" d="M 153.5 105 L 159 105.5 L 153.5 106 L 153.5 105 Z " /><path fill="rgb(8,65,242)" stroke="rgb(8,65,242)" stroke-width="1" opacity="0.24705882352941178" d="M 166.5 105 L 172 105.5 L 166.5 106 L 166.5 105 Z " /><path fill="rgb(8,65,242)" stroke="rgb(8,65,242)" stroke-width="1" opacity="0.24705882352941178" d="M 149.5 106 L 152 106.5 L 149.5 107 L 149.5 106 Z " /><path fill="rgb(8,65,242)" stroke="rgb(8,65,242)" stroke-width="1" opacity="0.24705882352941178" d="M 233.5 107 L 237 113.5 L 236 113.5 L 233.5 107 Z " /><path fill="rgb(8,65,242)" stroke="rgb(8,65,242)" stroke-width="1" opacity="0.24705882352941178" d="M 143.5 108 L 145 108.5 L 136.5 113 L 137.5 111 L 143.5 108 Z " /><path fill="rgb(8,65,242)" stroke="rgb(8,65,242)" stroke-width="1" opacity="0.24705882352941178" d="M 183.5 109 L 190 112.5 L 188.5 112 L 183.5 110 L 183.5 109 Z " /><path fill="rgb(8,65,242)" stroke="rgb(8,65,242)" stroke-width="1" opacity="0.24705882352941178" d="M 134.5 113 L 132.5 116 L 134.5 113 Z " /><path fill="rgb(8,65,242)" stroke="rgb(8,65,242)" stroke-width="1" opacity="0.24705882352941178" d="M 191.5 113 L 192.5 115 L 191.5 113 Z " /><path fill="rgb(8,65,242)" stroke="rgb(8,65,242)" stroke-width="1" opacity="0.24705882352941178" d="M 194.5 115 L 199.5 121 L 194.5 115 Z " /><path fill="rgb(8,65,242)" stroke="rgb(8,65,242)" stroke-width="1" opacity="0.24705882352941178" d="M 130.5 116 L 125 122.5 L 118.5 132 L 119 130.5 Q 123.3 121.8 130.5 116 Z " /><path fill="rgb(8,65,242)" stroke="rgb(8,65,242)" stroke-width="1" opacity="0.24705882352941178" d="M 84.5 121 L 85 122.5 L 83.5 125 L 83 123.5 L 84.5 121 Z " /><path fill="rgb(8,65,242)" stroke="rgb(8,65,242)" stroke-width="1" opacity="0.24705882352941178" d="M 201.5 121 L 232.5 151 L 235 149.5 L 231.5 152 L 201.5 121 Z " /><path fill="rgb(8,65,242)" stroke="rgb(8,65,242)" stroke-width="1" opacity="0.24705882352941178" d="M 239.5 122 L 240 125.5 L 239 125.5 L 239.5 122 Z " /><path fill="rgb(8,65,242)" stroke="rgb(8,65,242)" stroke-width="1" opacity="0.24705882352941178" d="M 80.5 132 L 81 134.5 L 80 134.5 L 80.5 132 Z " /><path fill="rgb(8,65,242)" stroke="rgb(8,65,242)" stroke-width="1" opacity="0.24705882352941178" d="M 117.5 133 L 118 134.5 L 116.5 137 L 116 135.5 L 117.5 133 Z " /><path fill="rgb(8,65,242)" stroke="rgb(8,65,242)" stroke-width="1" opacity="0.24705882352941178" d="M 79.5 136 L 80 138.5 L 79 138.5 L 79.5 136 Z " /><path fill="rgb(8,65,242)" stroke="rgb(8,65,242)" stroke-width="1" opacity="0.24705882352941178" d="M 239.5 137 L 240 139.5 L 239 139.5 L 239.5 137 Z " /><path fill="rgb(8,65,242)" stroke="rgb(8,65,242)" stroke-width="1" opacity="0.24705882352941178" d="M 114.5 140 L 115 142.5 L 114 142.5 L 114.5 140 Z " /><path fill="rgb(8,65,242)" stroke="rgb(8,65,242)" stroke-width="1" opacity="0.24705882352941178" d="M 78.5 141 L 79 144.5 L 78 144.5 L 78.5 141 Z " /><path fill="rgb(8,65,242)" stroke="rgb(8,65,242)" stroke-width="1" opacity="0.24705882352941178" d="M 159.5 141 L 162 141.5 L 159.5 142 L 159.5 141 Z " /><path fill="rgb(8,65,242)" stroke="rgb(8,65,242)" stroke-width="1" opacity="0.24705882352941178" d="M 167.5 141 L 170 141.5 L 167.5 142 L 167.5 141 Z " /><path fill="rgb(8,65,242)" stroke="rgb(8,65,242)" stroke-width="1" opacity="0.24705882352941178" d="M 238.5 141 L 239 142.5 L 235.5 148 L 236 146.5 L 238.5 141 Z " /><path fill="rgb(8,65,242)" stroke="rgb(8,65,242)" stroke-width="1" opacity="0.24705882352941178" d="M 171.5 142 L 177 146.5 L 172.5 143 L 171.5 142 Z " /><path fill="rgb(8,65,242)" stroke="rgb(8,65,242)" stroke-width="1" opacity="0.24705882352941178" d="M 155.5 143 L 150 149.5 L 148.5 153 L 148 151.5 L 155.5 143 Z " /><path fill="rgb(8,65,242)" stroke="rgb(8,65,242)" stroke-width="1" opacity="0.24705882352941178" d="M 113.5 144 L 114 146.5 L 113 146.5 L 113.5 144 Z " /><path fill="rgb(8,65,242)" stroke="rgb(8,65,242)" stroke-width="1" opacity="0.24705882352941178" d="M 178.5 147 L 184.5 154 L 178.5 147 Z " /><path fill="rgb(8,65,242)" stroke="rgb(8,65,242)" stroke-width="1" opacity="0.24705882352941178" d="M 77.5 149 L 78 153.5 L 76 154.5 L 77.5 149 Z " /><path fill="rgb(8,65,242)" stroke="rgb(8,65,242)" stroke-width="1" opacity="0.24705882352941178" d="M 112.5 149 L 113 164.5 L 112 164.5 L 112.5 149 Z " /><path fill="rgb(8,65,242)" stroke="rgb(8,65,242)" stroke-width="1" opacity="0.24705882352941178" d="M 58.5 153 L 65 153.5 L 58.5 154 L 58.5 153 Z " /><path fill="rgb(8,65,242)" stroke="rgb(8,65,242)" stroke-width="1" opacity="0.24705882352941178" d="M 66.5 153 L 73 153.5 L 66.5 154 L 66.5 153 Z " /><path fill="rgb(8,65,242)" stroke="rgb(8,65,242)" stroke-width="1" opacity="0.24705882352941178" d="M 53.5 154 L 56 154.5 L 53.5 155 L 53.5 154 Z " /><path fill="rgb(8,65,242)" stroke="rgb(8,65,242)" stroke-width="1" opacity="0.24705882352941178" d="M 147.5 155 L 148 161.5 L 147 161.5 L 147.5 155 Z " /><path fill="rgb(8,65,242)" stroke="rgb(8,65,242)" stroke-width="1" opacity="0.24705882352941178" d="M 264.5 155 L 274 155.5 L 264.5 156 L 264.5 155 Z " /><path fill="rgb(8,65,242)" stroke="rgb(8,65,242)" stroke-width="1" opacity="0.24705882352941178" d="M 259.5 156 L 262 156.5 L 259.5 157 L 259.5 156 Z " /><path fill="rgb(8,65,242)" stroke="rgb(8,65,242)" stroke-width="1" opacity="0.24705882352941178" d="M 44.5 157 L 46 157.5 Q 33.6 162.6 26 172.5 L 23.5 176 L 25 173.5 L 34.5 163 L 44.5 157 Z " /><path fill="rgb(8,65,242)" stroke="rgb(8,65,242)" stroke-width="1" opacity="0.24705882352941178" d="M 188.5 157 L 222.5 192 L 188.5 157 Z " /><path fill="rgb(8,65,242)" stroke="rgb(8,65,242)" stroke-width="1" opacity="0.24705882352941178" d="M 256.5 157 L 258 157.5 L 251.5 161 L 252.5 159 L 256.5 157 Z " /><path fill="rgb(8,65,242)" stroke="rgb(8,65,242)" stroke-width="1" opacity="0.24705882352941178" d="M 279.5 157 L 288 162.5 L 285.5 161 Q 279.9 160.2 279.5 157 Z " /><path fill="rgb(8,65,242)" stroke="rgb(8,65,242)" stroke-width="1" opacity="0.24705882352941178" d="M 249.5 161 L 247.5 164 L 249.5 161 Z " /><path fill="rgb(8,65,242)" stroke="rgb(8,65,242)" stroke-width="1" opacity="0.24705882352941178" d="M 289.5 163 L 290.5 165 L 289.5 163 Z " /><path fill="rgb(8,65,242)" stroke="rgb(8,65,242)" stroke-width="1" opacity="0.24705882352941178" d="M 292.5 165 Q 300.8 171.2 305 181.5 L 304 181.5 L 302 176.5 L 292.5 165 Z " /><path fill="rgb(8,65,242)" stroke="rgb(8,65,242)" stroke-width="1" opacity="0.24705882352941178" d="M 113.5 166 L 114 168.5 L 113 168.5 L 113.5 166 Z " /><path fill="rgb(8,65,242)" stroke="rgb(8,65,242)" stroke-width="1" opacity="0.24705882352941178" d="M 245.5 166 L 270.5 192 L 245.5 166 Z " /><path fill="rgb(8,65,242)" stroke="rgb(8,65,242)" stroke-width="1" opacity="0.24705882352941178" d="M 150.5 168 L 224.5 243 L 150.5 168 Z " /><path fill="rgb(8,65,242)" stroke="rgb(8,65,242)" stroke-width="1" opacity="0.24705882352941178" d="M 114.5 170 L 116 174.5 L 115 174.5 L 114.5 170 Z " /><path fill="rgb(8,65,242)" stroke="rgb(8,65,242)" stroke-width="1" opacity="0.24705882352941178" d="M 116.5 176 L 119 180.5 L 117 179.5 L 116.5 176 Z " /><path fill="rgb(8,65,242)" stroke="rgb(8,65,242)" stroke-width="1" opacity="0.24705882352941178" d="M 22.5 177 L 22 178.5 L 18.5 186 L 18 184.5 L 22.5 177 Z " /><path fill="rgb(8,65,242)" stroke="rgb(8,65,242)" stroke-width="1" opacity="0.24705882352941178" d="M 120.5 184 L 121.5 186 L 120.5 184 Z " /><path fill="rgb(8,65,242)" stroke="rgb(8,65,242)" stroke-width="1" opacity="0.24705882352941178" d="M 122.5 187 L 151.5 217 L 122.5 187 Z " /><path fill="rgb(8,65,242)" stroke="rgb(8,65,242)" stroke-width="1" opacity="0.24705882352941178" d="M 61.5 188 L 64 188.5 L 61.5 189 L 61.5 188 Z " /><path fill="rgb(8,65,242)" stroke="rgb(8,65,242)" stroke-width="1" opacity="0.24705882352941178" d="M 67.5 188 L 71 188.5 L 67.5 189 L 67.5 188 Z " /><path fill="rgb(8,65,242)" stroke="rgb(8,65,242)" stroke-width="1" opacity="0.24705882352941178" d="M 307.5 189 L 308 191.5 L 307 191.5 L 307.5 189 Z " /><path fill="rgb(8,65,242)" stroke="rgb(8,65,242)" stroke-width="1" opacity="0.24705882352941178" d="M 16.5 190 L 17 192.5 L 16 192.5 L 16.5 190 Z " /><path fill="rgb(8,65,242)" stroke="rgb(8,65,242)" stroke-width="1" opacity="0.24705882352941178" d="M 57.5 190 L 56.5 192 L 57.5 190 Z " /><path fill="rgb(8,65,242)" stroke="rgb(8,65,242)" stroke-width="1" opacity="0.24705882352941178" d="M 74.5 190 L 128 242.5 L 76.5 192 L 74.5 190 Z " /><path fill="rgb(8,65,242)" stroke="rgb(8,65,242)" stroke-width="1" opacity="0.24705882352941178" d="M 54.5 192 L 54 193.5 L 50.5 200 L 50 198.5 L 54.5 192 Z " /><path fill="rgb(8,65,242)" stroke="rgb(8,65,242)" stroke-width="1" opacity="0.24705882352941178" d="M 271.5 193 L 273 195.5 L 272 195.5 L 271.5 193 Z " /><path fill="rgb(8,65,242)" stroke="rgb(8,65,242)" stroke-width="1" opacity="0.24705882352941178" d="M 15.5 194 L 16 197.5 L 15 197.5 L 15.5 194 Z " /><path fill="rgb(8,65,242)" stroke="rgb(8,65,242)" stroke-width="1" opacity="0.24705882352941178" d="M 224.5 194 L 236.5 207 L 224.5 194 Z " /><path fill="rgb(8,65,242)" stroke="rgb(8,65,242)" stroke-width="1" opacity="0.24705882352941178" d="M 308.5 195 L 309 212.5 L 308 212.5 L 308.5 195 Z " /><path fill="rgb(8,65,242)" stroke="rgb(8,65,242)" stroke-width="1" opacity="0.24705882352941178" d="M 49.5 201 L 50 208.5 L 49 208.5 L 49.5 201 Z " /><path fill="rgb(8,65,242)" stroke="rgb(8,65,242)" stroke-width="1" opacity="0.24705882352941178" d="M 238.5 207 L 249 216.5 L 247.5 216 L 238.5 207 Z " /><path fill="rgb(8,65,242)" stroke="rgb(8,65,242)" stroke-width="1" opacity="0.24705882352941178" d="M 15.5 211 L 16 214.5 L 15 214.5 L 15.5 211 Z " /><path fill="rgb(8,65,242)" stroke="rgb(8,65,242)" stroke-width="1" opacity="0.24705882352941178" d="M 271.5 211 L 270 213.5 Q 270.8 215.8 268.5 215 L 266 216.5 L 271.5 211 Z " /><path fill="rgb(8,65,242)" stroke="rgb(8,65,242)" stroke-width="1" opacity="0.24705882352941178" d="M 51.5 213 L 52.5 215 L 51.5 213 Z " /><path fill="rgb(8,65,242)" stroke="rgb(8,65,242)" stroke-width="1" opacity="0.24705882352941178" d="M 307.5 214 L 308 216.5 L 307 216.5 L 307.5 214 Z " /><path fill="rgb(8,65,242)" stroke="rgb(8,65,242)" stroke-width="1" opacity="0.24705882352941178" d="M 16.5 216 L 17 218.5 L 16 218.5 L 16.5 216 Z " /><path fill="rgb(8,65,242)" stroke="rgb(8,65,242)" stroke-width="1" opacity="0.24705882352941178" d="M 53.5 216 L 79 241.5 L 74.5 246 L 78 241.5 L 53.5 216 Z " /><path fill="rgb(8,65,242)" stroke="rgb(8,65,242)" stroke-width="1" opacity="0.24705882352941178" d="M 252.5 218 L 255 218.5 L 252.5 219 L 252.5 218 Z " /><path fill="rgb(8,65,242)" stroke="rgb(8,65,242)" stroke-width="1" opacity="0.24705882352941178" d="M 306.5 218 L 307 219.5 L 305.5 222 L 305 220.5 L 306.5 218 Z " /><path fill="rgb(8,65,242)" stroke="rgb(8,65,242)" stroke-width="1" opacity="0.24705882352941178" d="M 256.5 219 L 259 219.5 L 256.5 220 L 256.5 219 Z " /><path fill="rgb(8,65,242)" stroke="rgb(8,65,242)" stroke-width="1" opacity="0.24705882352941178" d="M 154.5 220 L 160.5 227 L 154.5 220 Z " /><path fill="rgb(8,65,242)" stroke="rgb(8,65,242)" stroke-width="1" opacity="0.24705882352941178" d="M 302.5 227 L 302 228.5 L 300.5 231 L 301 229.5 L 302.5 227 Z " /><path fill="rgb(8,65,242)" stroke="rgb(8,65,242)" stroke-width="1" opacity="0.24705882352941178" d="M 165.5 230 L 176 241.5 L 171 245.5 L 175 240.5 L 165.5 230 Z " /><path fill="rgb(8,65,242)" stroke="rgb(8,65,242)" stroke-width="1" opacity="0.24705882352941178" d="M 22.5 232 L 23.5 234 L 22.5 232 Z " /><path fill="rgb(8,65,242)" stroke="rgb(8,65,242)" stroke-width="1" opacity="0.24705882352941178" d="M 299.5 232 L 297.5 235 L 299.5 232 Z " /><path fill="rgb(8,65,242)" stroke="rgb(8,65,242)" stroke-width="1" opacity="0.24705882352941178" d="M 24.5 235 L 25.5 237 L 24.5 235 Z " /><path fill="rgb(8,65,242)" stroke="rgb(8,65,242)" stroke-width="1" opacity="0.24705882352941178" d="M 296.5 236 L 290.5 243 L 280.5 249 L 280.5 248 Q 290.5 244 296.5 236 Z " /><path fill="rgb(8,65,242)" stroke="rgb(8,65,242)" stroke-width="1" opacity="0.24705882352941178" d="M 26.5 238 L 38 247.5 L 36.5 247 Q 29.1 244.2 26.5 238 Z " /><path fill="rgb(8,65,242)" stroke="rgb(8,65,242)" stroke-width="1" opacity="0.24705882352941178" d="M 129.5 243 L 131.5 246 L 129.5 243 Z " /><path fill="rgb(8,65,242)" stroke="rgb(8,65,242)" stroke-width="1" opacity="0.24705882352941178" d="M 226.5 243 L 231 246.5 L 229.5 246 L 226.5 243 Z " /><path fill="rgb(8,65,242)" stroke="rgb(8,65,242)" stroke-width="1" opacity="0.24705882352941178" d="M 133.5 246 L 134.5 248 L 133.5 246 Z " /><path fill="rgb(8,65,242)" stroke="rgb(8,65,242)" stroke-width="1" opacity="0.24705882352941178" d="M 169.5 246 L 168.5 248 L 169.5 246 Z " /><path fill="rgb(8,65,242)" stroke="rgb(8,65,242)" stroke-width="1" opacity="0.24705882352941178" d="M 70.5 247 L 69.5 249 L 68 248.5 L 70.5 247 Z " /><path fill="rgb(8,65,242)" stroke="rgb(8,65,242)" stroke-width="1" opacity="0.24705882352941178" d="M 232.5 247 L 235 248.5 L 233.5 248 L 232.5 247 Z " /><path fill="rgb(8,65,242)" stroke="rgb(8,65,242)" stroke-width="1" opacity="0.24705882352941178" d="M 165.5 248 L 167 248.5 L 163.5 250 L 163.5 249 L 165.5 248 Z " /><path fill="rgb(8,65,242)" stroke="rgb(8,65,242)" stroke-width="1" opacity="0.24705882352941178" d="M 48.5 251 L 60 251.5 L 48.5 252 L 48.5 251 Z " /><path fill="rgb(8,65,242)" stroke="rgb(8,65,242)" stroke-width="1" opacity="0.24705882352941178" d="M 145.5 251 L 158 251.5 L 145.5 252 L 145.5 251 Z " /><path fill="rgb(8,65,242)" stroke="rgb(8,65,242)" stroke-width="1" opacity="0.24705882352941178" d="M 245.5 252 L 248 252.5 L 245.5 253 L 245.5 252 Z " /><path fill="rgb(8,65,242)" stroke="rgb(8,65,242)" stroke-width="1" opacity="0.24705882352941178" d="M 268.5 252 L 271 252.5 L 268.5 253 L 268.5 252 Z " /><path fill="rgb(8,65,242)" stroke="rgb(8,65,242)" stroke-width="1" opacity="0.24705882352941178" d="M 251.5 253 L 265 253.5 L 251.5 254 L 251.5 253 Z " /><path fill="rgb(12,75,254)" stroke="rgb(12,75,254)" stroke-width="1" opacity="0.9921568627450981" d="M 159.5 70 L 182.5 72 L 197.5 77 Q 216.6 85.4 229 100.5 L 239 120.5 L 240 136.5 L 235 148.5 L 232.5 151 L 201.5 121 L 188.5 111 L 171.5 105 L 153.5 105 Q 134.3 109.3 124 122.5 Q 117.5 130 114 140.5 L 112 149.5 L 112 164.5 Q 114.7 178.3 122 187.5 L 160.5 227 L 175 240.5 L 170.5 246 L 159.5 251 L 143.5 251 Q 134.3 248.7 128.5 243 L 76.5 191 Q 72 186.5 61.5 188 L 53 193.5 Q 47.8 197.8 49 208.5 L 53 216.5 L 78 241.5 L 73.5 246 L 61.5 251 L 46.5 251 Q 33.1 247.4 26 237.5 Q 14.3 224.2 15 198.5 Q 19 175.5 34.5 164 L 46.5 157 L 56.5 154 L 64.5 154 L 65.5 153 L 76.5 155 L 78 153.5 L 79 139.5 L 85 120.5 Q 94.1 101.6 109.5 89 L 131.5 76 L 144.5 72 L 158.5 71 L 159.5 70 Z " /><path fill="rgb(12,75,254)" stroke="rgb(12,75,254)" stroke-width="1" opacity="0.9921568627450981" d="M 162.5 141 L 172.5 143 L 188 156.5 L 236.5 207 L 246.5 216 Q 251 219.5 258.5 220 L 270 215 L 274 207.5 L 274 197.5 L 271 191.5 L 245 165.5 L 258.5 157 Q 265.6 154.6 276.5 156 L 291.5 165 L 299 172.5 L 306 184.5 L 308 192.5 L 308 213.5 Q 303.1 231.6 290.5 242 Q 282.8 248.8 271.5 252 L 267.5 253 L 248.5 253 Q 234.7 250.3 225.5 243 L 150 167.5 Q 146.7 162.8 148 153.5 L 156.5 143 L 162.5 141 Z " /></svg>