
<?xml version="1.0" encoding="UTF-8"?>
<!DOCTYPE svg PUBLIC "-//W3C//DTD SVG 1.1//EN" "http://www.w3.org/Graphics/SVG/1.1/DTD/svg11.dtd">
<!-- Creator: CorelDRAW -->
<svg xmlns="http://www.w3.org/2000/svg" xml:space="preserve" width="27.2594mm" height="27.2594mm" version="1.1" style="shape-rendering:geometricPrecision; text-rendering:geometricPrecision; image-rendering:optimizeQuality; fill-rule:evenodd; clip-rule:evenodd"
viewBox="0 0 159.88 159.88"
 xmlns:xlink="http://www.w3.org/1999/xlink"
 xmlns:xodm="http://www.corel.com/coreldraw/odm/2003">
 <defs>
  <style type="text/css">
   <![CDATA[
    .fil0 {fill:none}
    .fil1 {fill:#021FFF}
    .fil2 {fill:#1F9AFF}
   ]]>
  </style>
 </defs>
 <g id="Layer_x0020_1">
  <metadata id="CorelCorpID_0Corel-Layer"/>
  <rect class="fil0" width="159.88" height="159.88"/>
  <g id="_2163435309424">
   <path class="fil1" d="M38.17 76.34c-5.15,-0.53 -7.02,-1.16 -12.73,0.41 -16.49,4.52 -24.46,24.8 -13.03,40.44 4.84,6.62 13.06,9.3 21.09,5.87 1.9,-0.81 3.6,-1.97 4.97,-3.44 -1.78,-2.15 -9.5,-9.39 -12.1,-12.23 -7.42,-8.12 3.75,-20.43 12.98,-11.25l20.27 20.23c2.15,2.15 3.96,4.51 7.23,6.27 4.72,2.53 11.24,2.64 16.13,-0.13 1.27,-0.72 3.24,-2.01 3.85,-3.06l-9.21 -9.13c-1.57,-1.57 -2.99,-3.04 -4.56,-4.61l-11.41 -11.42c-0.66,-0.79 -1.37,-1.72 -2.01,-2.67 -11.4,-16.88 0.74,-39.99 20.63,-39.99 13.22,0 19.58,8.26 27.37,16.05 1.27,1.27 6.3,6.61 7.25,7.26 4.16,-4.21 4.78,-10.13 3.28,-15.72 -1.5,-5.62 -4.72,-9.86 -7.74,-12.85 -3.36,-3.32 -7.81,-6.22 -12.2,-8.22 -5.28,-2.41 -11.31,-3.68 -17.79,-3.68 -23.02,0 -41.99,19.06 -42.25,41.87z"/>
   <path class="fil2" d="M80.12 69.85l-0.37 -0.02 -0.38 0.19 -0.38 0.02 -0.28 0.15 -0.67 0.17 -0.22 0.17 -0.13 0c0,0.25 0.06,0.17 -0.22,0.17l-0.11 0.01 -0.19 0.19 -0.39 0.11 -0.19 0.21 -0.24 0.19c0,0.27 0.06,0.21 -0.22,0.18l-0.19 0.18 -0.86 0.81 -0.19 0.18c0.01,0.25 0.07,0.18 -0.18,0.18l-0.17 0.26 -0.15 0.26c0.05,0.32 0.14,0.26 -0.15,0.26l-0 0.07c0.02,0.29 0.09,0.22 -0.19,0.22l-0.34 0.82c0.04,0.29 0.1,0.22 -0.18,0.22l-0.02 0.04 -0.15 0.32 -0.02 0.2 0.01 0.24 -0.16 0.24 -0 0.29 -0.22 0.48 0.05 0.45 0 1.83 -0.02 0.53 0.23 0.45 -0.01 0.33 0.14 0.3 -0.02 0.19 0.24 0.28c0.08,0.65 0.38,1.04 0.64,1.57l0.19 0.19 0.16 0.3c0.18,0.14 0.16,0.05 0.34,0.41l19.21 19.32c0.58,0.33 15.12,15.02 15.27,15.27l0.8 0.69c0.1,0.06 0.24,0.14 0.34,0.21 0.21,0.16 0.14,0.12 0.29,0.28l0.2 0.22c0.38,0.19 0.27,0.14 0.41,0.35l0.26 0.18c0.47,0.18 0.3,0.13 0.45,0.32l0.32 0.16 0.17 0.19 0.35 0.15 0.17 0.19 0.31 0.15 0.22 0.2 0.14 -0.03c0.29,-0.02 0.22,-0.09 0.22,0.19l0.28 0.16 0.22 0.19 0.18 -0.03c0.28,0 0.22,-0.07 0.22,0.18l0.06 0.01c0.27,0 0.22,-0.07 0.22,0.18l0.16 -0.02c0.29,-0.04 0.22,-0.1 0.22,0.18l0.12 -0.01c0.29,-0.04 0.22,-0.1 0.22,0.18l0.12 -0.01c0.35,-0.03 0.29,-0.13 0.29,0.17l-0.03 0.02 0.29 0.17 0.12 -0.01 0.24 0.18 0.27 0c0.32,-0.05 0.25,-0.13 0.25,0.17l0.04 0.02 0.29 0.16 0.28 0c0.35,-0.05 0.29,-0.14 0.29,0.16l0.04 0.02 0.29 0.16 0.2 0.02 0.32 0.15 0.2 0.02 0.25 -0.01c0.26,-0.01 0.2,-0.08 0.2,0.17l0.14 0 0.23 -0.02c0.31,-0.02 0.25,-0.1 0.25,0.17l0.32 0.05 0.3 0.13 0.27 0.01 0.37 0.19 0.3 -0.01 0.3 -0.04 0.29 0.21 0.35 -0 0.39 0.18 0.71 -0.04 0.69 0.2 1.13 0 3.53 0.01 1.02 0.02 0.69 -0.2 0.78 0.01 0.44 -0.17 0.36 0.02 0.43 -0.23 0.37 0.03 0.37 -0.18 0.32 0.01 0.32 -0.2 0.28 -0.01 0.3 -0.14 0.34 0.04 0.3 -0.23 0.17 0.01 0.28 -0.15 0.17 -0.05 0.28 -0.15 0.67 -0.17 0.22 -0.17 0.15 0.01 0.28 -0.15 2.16 -1.05 0.19 -0.18 0.09 -0.02 0.19 -0.19 0.39 -0.11 0.19 -0.19 0.32 -0.15 0.19 -0.2 0.32 -0.15 0.17 -0.21 0.28 -0.17c0.15,-0.19 0.05,-0.16 0.43,-0.34 4.99,-3.4 9.96,-12.24 9.82,-17.62 0.55,-12.37 -3.6,-19.85 -16.15,-25.66l-0.79 0.03 -0.69 -0.21 -0.52 0.01 -2.56 0.02 -0.81 0.01 -0.5 0.15 -0.43 0.01 -0.3 0.15 -0.32 0.01 -0.29 0.01 -0.35 0.19 -0.33 -0.01 -0.32 0.13 -0.24 0.03 -0.28 0.15 -0.24 0.03 -0.28 0.15 -0.17 0.05 -0.26 0.16 -0.08 0.01c0,0.3 0.06,0.21 -0.29,0.16l-0.6 0.18 -0.25 0.17 -1.01 0.51c0,0.25 0.06,0.18 -0.19,0.19l-0.12 0 -0.2 0.19 -0.3 0.16c-0.03,0.03 -0.07,0.08 -0.09,0.09 -0.02,0.02 -0.08,0.07 -0.11,0.09 -0.38,0.28 0.35,-0.11 -0.27,0.13l-0.04 0.05 -0.46 0.33 -0.37 0.37 -0.37 0.38c-0.88,0.69 -0.63,0.05 -0.78,0.92 0.92,0.69 2.22,2.17 3.1,3.05 1.08,1.08 2.03,2.03 3.12,3.11 1.99,1.99 4.5,4.24 6.26,6.34 0.2,0.17 0.1,-0.1 0.33,0.45l0.17 0.28 0.2 0.19 -0 0.11 0.2 0.22 0.36 0.73 0.15 0.28 -0.02 0.17 0.15 0.28 0.02 0.26 0.2 0.3 -0.03 0.37 0.2 0.5 0 2.76 -0.19 0.45 -0.03 0.18 0.01 0.24 -0.16 0.24 0 0.14 0.01 0.2c0.02,0.25 0.07,0.18 -0.19,0.18l-0.02 0.04 -0.16 0.29 0.01 0.12 -0.18 0.22 0.01 0.12 -0.18 0.22 0.03 0.18c0,0.27 0.07,0.22 -0.18,0.22l-0.03 0.02 -0.21 0.42c-0.01,-0.02 -0.06,0.07 -0.1,0.1l-0.2 0.16c-0.82,1.16 -0.46,0.89 -1.72,1.62l-0.15 0.2 -0.17 0.21 -0.39 0.11 -0.19 0.19 -0.11 0.01c0,0.25 0.06,0.17 -0.22,0.17l-0.13 0c0,0.25 0.06,0.17 -0.22,0.17l-0.67 0.17 -0.28 0.15 -0.27 0.02 -0.26 0.22 -0.3 -0.04 -0.47 -0.01c-0.29,0.18 -0.33,0.22 -0.84,0.24 -0.17,0.01 -0.37,-0.01 -0.54,-0.03 -0.91,-0.14 -0.07,0 -0.46,-0.16l-0.74 -0.03 -0.36 -0.2 -0.37 0.04 -0.31 -0.22 -0.32 0.03c-0.31,0.03 -0.26,0.11 -0.26,-0.15l-0.24 -0.03c-2.84,0.43 -36.59,-37.54 -38.96,-37.38l-0.22 -0.18 -0.28 0c-0.35,0.05 -0.29,0.14 -0.29,-0.15l-0.15 0.01 -0.28 -0.22 -0.23 0.03 -0.34 -0.2 -0.55 0.05 -0.67 -0.21 -1.3 0 -0.71 0.19z"/>
  </g>
 </g>
</svg>
